<svg width="48" height="48" viewBox="0 0 48 48" fill="none" xmlns="http://www.w3.org/2000/svg">
<path d="M23.488 24.1245C17.6684 24.1245 12.9336 28.8588 12.9336 34.6785C12.9336 35.0745 13.2545 35.3959 13.6511 35.3959H33.3245C33.7205 35.3959 34.042 35.0745 34.042 34.6785C34.042 28.8588 29.3072 24.1245 23.488 24.1245ZM14.3967 33.961C14.7641 29.2668 18.7016 25.5594 23.488 25.5594C28.2745 25.5594 32.2119 29.2668 32.5788 33.961H14.3967Z" fill="black"/>
<path d="M23.3158 23.177C26.7324 23.177 29.5118 20.3975 29.5118 16.981C29.5118 13.5644 26.7319 10.7849 23.3158 10.7849C19.8992 10.7849 17.1198 13.5644 17.1198 16.981C17.1198 20.3975 19.8992 23.177 23.3158 23.177ZM23.3158 12.2198C25.9408 12.2198 28.0769 14.3555 28.0769 16.981C28.0769 19.6059 25.9408 21.7421 23.3158 21.7421C20.6903 21.7421 18.5547 19.6064 18.5547 16.981C18.5547 14.3555 20.6903 12.2198 23.3158 12.2198Z" fill="black"/>
<path d="M9.46105 28.0835C10.6382 28.0835 11.7943 28.3973 12.8044 28.9913C13.146 29.1932 13.586 29.0779 13.7864 28.7369C13.9873 28.3954 13.8735 27.9553 13.5315 27.7544C12.3013 27.0307 10.8936 26.6486 9.46105 26.6486C5.03332 26.6486 1.43115 30.2507 1.43115 34.6785C1.43115 35.0745 1.7521 35.3959 2.14862 35.3959H11.2423C11.6388 35.3959 11.9597 35.0745 11.9597 34.6785C11.9597 34.2824 11.6388 33.961 11.2423 33.961H2.90483C3.26356 30.6606 6.06695 28.0835 9.46105 28.0835Z" fill="black"/>
<path d="M9.33376 25.5031C11.9745 25.5031 14.1236 23.3545 14.1236 20.7133C14.1236 18.072 11.975 15.9235 9.33376 15.9235C6.69252 15.9235 4.54395 18.072 4.54395 20.7133C4.54395 23.354 6.69252 25.5031 9.33376 25.5031ZM9.33376 17.3584C11.1834 17.3584 12.6886 18.8632 12.6886 20.7133C12.6886 22.5629 11.1839 24.0682 9.33376 24.0682C7.48365 24.0682 5.97888 22.5634 5.97888 20.7133C5.97888 18.8632 7.48365 17.3584 9.33376 17.3584Z" fill="black"/>
<path d="M37.5729 26.6486C36.1408 26.6486 34.7331 27.0312 33.5024 27.7544C33.1605 27.9553 33.0466 28.3949 33.2475 28.7364C33.4484 29.0789 33.8894 29.1922 34.2295 28.9913C35.2402 28.3973 36.3962 28.0835 37.5729 28.0835C40.967 28.0835 43.7704 30.6606 44.1291 33.961H35.7931C35.397 33.961 35.0756 34.2824 35.0756 34.6785C35.0756 35.0745 35.397 35.3959 35.7931 35.3959H44.8853C45.2813 35.3959 45.6028 35.0745 45.6028 34.6785C45.6028 30.2507 42.0006 26.6486 37.5729 26.6486Z" fill="black"/>
<path d="M37.7006 25.5031C40.3413 25.5031 42.4904 23.3545 42.4904 20.7133C42.4904 18.072 40.3418 15.9235 37.7006 15.9235C35.0593 15.9235 32.9103 18.072 32.9103 20.7133C32.9108 23.354 35.0593 25.5031 37.7006 25.5031ZM37.7006 17.3584C39.5502 17.3584 41.0554 18.8632 41.0554 20.7133C41.0554 22.5629 39.5507 24.0682 37.7006 24.0682C35.8505 24.0682 34.3452 22.5634 34.3452 20.7133C34.3457 18.8632 35.8505 17.3584 37.7006 17.3584Z" fill="black"/>
</svg>
