<svg width="28" height="28" viewBox="0 0 28 28" fill="none" xmlns="http://www.w3.org/2000/svg">
<g clip-path="url(#clip0_871_167)">
<path d="M28 3.21016C28 1.43828 26.5617 0 24.7898 0H3.21016C1.43828 0 0 1.43828 0 3.21016V24.7953C0 26.5617 1.43828 28 3.21016 28H24.7953C26.5672 28 28.0055 26.5617 28.0055 24.7898V3.21016H28Z" fill="#607D8B"/>
<path d="M21.0984 9.38457C21.5523 9.83848 21.5523 10.5768 21.0984 11.0361L13.5133 18.6158C13.2836 18.8455 12.9883 18.9604 12.6875 18.9604C12.3867 18.9604 12.0914 18.8455 11.8617 18.6158L8.07188 14.826C7.61797 14.3721 7.61797 13.6338 8.07188 13.1744C8.52578 12.7205 9.26406 12.7205 9.72344 13.1744L12.693 16.1439L19.4523 9.38457C19.9008 8.9252 20.6391 8.9252 21.0984 9.38457Z" fill="#FAFAFA"/>
</g>
<defs>
<clipPath id="clip0_871_167">
<rect width="28" height="28" fill="white"/>
</clipPath>
</defs>
</svg>
