<svg width="148" height="32" viewBox="0 0 148 32" fill="none" xmlns="http://www.w3.org/2000/svg">
<path d="M5.84659 25H0.573864L8.60795 1.72727H14.9489L22.9716 25H17.6989L11.8693 7.04545H11.6875L5.84659 25ZM5.51705 15.8523H17.9716V19.6932H5.51705V15.8523ZM32.733 31.9091C31.1648 31.9091 29.8201 31.6932 28.6989 31.2614C27.5852 30.8371 26.6989 30.2576 26.0398 29.5227C25.3807 28.7879 24.9527 27.9621 24.7557 27.0455L29.233 26.4432C29.3693 26.7917 29.5852 27.1174 29.8807 27.4205C30.1761 27.7235 30.5663 27.9659 31.0511 28.1477C31.5436 28.3371 32.142 28.4318 32.8466 28.4318C33.8996 28.4318 34.767 28.1742 35.4489 27.6591C36.1383 27.1515 36.483 26.2992 36.483 25.1023V21.9091H36.2784C36.0663 22.3939 35.7481 22.8523 35.3239 23.2841C34.8996 23.7159 34.3542 24.0682 33.6875 24.3409C33.0208 24.6136 32.2254 24.75 31.3011 24.75C29.9905 24.75 28.7973 24.447 27.7216 23.8409C26.6534 23.2273 25.8011 22.2917 25.1648 21.0341C24.536 19.7689 24.2216 18.1705 24.2216 16.2386C24.2216 14.2614 24.5436 12.6098 25.1875 11.2841C25.8314 9.95833 26.6875 8.96591 27.7557 8.30682C28.8314 7.64773 30.0095 7.31818 31.2898 7.31818C32.267 7.31818 33.0852 7.48485 33.7443 7.81818C34.4034 8.14394 34.9337 8.55303 35.3352 9.04545C35.7443 9.5303 36.0587 10.0076 36.2784 10.4773H36.4602V7.54545H41.267V25.1705C41.267 26.6553 40.9034 27.8977 40.1761 28.8977C39.4489 29.8977 38.4413 30.6477 37.1534 31.1477C35.8731 31.6553 34.3996 31.9091 32.733 31.9091ZM32.8352 21.1136C33.6155 21.1136 34.2746 20.9205 34.8125 20.5341C35.358 20.1402 35.7746 19.5795 36.0625 18.8523C36.358 18.1174 36.5057 17.2386 36.5057 16.2159C36.5057 15.1932 36.3617 14.3068 36.0739 13.5568C35.786 12.7992 35.3693 12.2121 34.8239 11.7955C34.2784 11.3788 33.6155 11.1705 32.8352 11.1705C32.0398 11.1705 31.3693 11.3864 30.8239 11.8182C30.2784 12.2424 29.8655 12.8333 29.5852 13.5909C29.3049 14.3485 29.1648 15.2235 29.1648 16.2159C29.1648 17.2235 29.3049 18.0947 29.5852 18.8295C29.8731 19.5568 30.286 20.1212 30.8239 20.5227C31.3693 20.9167 32.0398 21.1136 32.8352 21.1136ZM45.1193 25V7.54545H49.8125V10.5909H49.9943C50.3125 9.50758 50.8466 8.68939 51.5966 8.13636C52.3466 7.57576 53.2102 7.29545 54.1875 7.29545C54.4299 7.29545 54.6913 7.31061 54.9716 7.34091C55.2519 7.37121 55.4981 7.41288 55.7102 7.46591V11.7614C55.483 11.6932 55.1686 11.6326 54.767 11.5795C54.3655 11.5265 53.9981 11.5 53.6648 11.5C52.9527 11.5 52.3163 11.6553 51.7557 11.9659C51.2027 12.2689 50.7633 12.6932 50.4375 13.2386C50.1193 13.7841 49.9602 14.4129 49.9602 15.125V25H45.1193ZM58.2131 25V7.54545H63.054V25H58.2131ZM60.6449 5.29545C59.9252 5.29545 59.3078 5.05682 58.7926 4.57954C58.285 4.0947 58.0312 3.51515 58.0312 2.84091C58.0312 2.17424 58.285 1.60227 58.7926 1.125C59.3078 0.640151 59.9252 0.397726 60.6449 0.397726C61.3646 0.397726 61.9782 0.640151 62.4858 1.125C63.0009 1.60227 63.2585 2.17424 63.2585 2.84091C63.2585 3.51515 63.0009 4.0947 62.4858 4.57954C61.9782 5.05682 61.3646 5.29545 60.6449 5.29545ZM66.1364 5.78409V1.72727H85.25V5.78409H78.125V25H73.2614V5.78409H66.1364ZM86.4943 25V7.54545H91.1875V10.5909H91.3693C91.6875 9.50758 92.2216 8.68939 92.9716 8.13636C93.7216 7.57576 94.5852 7.29545 95.5625 7.29545C95.8049 7.29545 96.0663 7.31061 96.3466 7.34091C96.6269 7.37121 96.8731 7.41288 97.0852 7.46591V11.7614C96.858 11.6932 96.5436 11.6326 96.142 11.5795C95.7405 11.5265 95.3731 11.5 95.0398 11.5C94.3277 11.5 93.6913 11.6553 93.1307 11.9659C92.5777 12.2689 92.1383 12.6932 91.8125 13.2386C91.4943 13.7841 91.3352 14.4129 91.3352 15.125V25H86.4943ZM110.781 17.5682V7.54545H115.622V25H110.974V21.8295H110.793C110.399 22.8523 109.743 23.6742 108.827 24.2955C107.918 24.9167 106.808 25.2273 105.497 25.2273C104.33 25.2273 103.304 24.9621 102.418 24.4318C101.531 23.9015 100.838 23.1477 100.338 22.1705C99.8456 21.1932 99.5956 20.0227 99.5881 18.6591V7.54545H104.429V17.7955C104.437 18.8258 104.713 19.6402 105.259 20.2386C105.804 20.8371 106.535 21.1364 107.452 21.1364C108.035 21.1364 108.58 21.0038 109.088 20.7386C109.596 20.4659 110.005 20.0644 110.315 19.5341C110.634 19.0038 110.789 18.3485 110.781 17.5682ZM134.017 12.5227L129.585 12.7955C129.509 12.4167 129.347 12.0758 129.097 11.7727C128.847 11.4621 128.517 11.2159 128.108 11.0341C127.706 10.8447 127.225 10.75 126.665 10.75C125.915 10.75 125.282 10.9091 124.767 11.2273C124.252 11.5379 123.994 11.9545 123.994 12.4773C123.994 12.8939 124.161 13.2462 124.494 13.5341C124.828 13.822 125.4 14.053 126.21 14.2273L129.369 14.8636C131.066 15.2121 132.331 15.7727 133.165 16.5455C133.998 17.3182 134.415 18.3333 134.415 19.5909C134.415 20.7348 134.078 21.7386 133.403 22.6023C132.737 23.4659 131.82 24.1402 130.653 24.625C129.494 25.1023 128.157 25.3409 126.642 25.3409C124.331 25.3409 122.491 24.8598 121.119 23.8977C119.756 22.928 118.956 21.6098 118.722 19.9432L123.483 19.6932C123.627 20.3977 123.975 20.9356 124.528 21.3068C125.081 21.6705 125.79 21.8523 126.653 21.8523C127.502 21.8523 128.184 21.6894 128.699 21.3636C129.222 21.0303 129.487 20.6023 129.494 20.0795C129.487 19.6402 129.301 19.2803 128.938 19C128.574 18.7121 128.013 18.4924 127.256 18.3409L124.233 17.7386C122.528 17.3977 121.259 16.8068 120.426 15.9659C119.6 15.125 119.188 14.053 119.188 12.75C119.188 11.6288 119.491 10.6629 120.097 9.85227C120.71 9.04167 121.57 8.41667 122.676 7.97727C123.79 7.53788 125.093 7.31818 126.585 7.31818C128.79 7.31818 130.525 7.78409 131.79 8.71591C133.063 9.64773 133.805 10.9167 134.017 12.5227ZM146.747 7.54545V11.1818H136.236V7.54545H146.747ZM138.622 3.36364H143.463V19.6364C143.463 20.0833 143.531 20.4318 143.668 20.6818C143.804 20.9242 143.993 21.0947 144.236 21.1932C144.486 21.2917 144.774 21.3409 145.099 21.3409C145.327 21.3409 145.554 21.322 145.781 21.2841C146.009 21.2386 146.183 21.2045 146.304 21.1818L147.065 24.7841C146.823 24.8598 146.482 24.947 146.043 25.0455C145.603 25.1515 145.069 25.2159 144.44 25.2386C143.274 25.2841 142.251 25.1288 141.372 24.7727C140.501 24.4167 139.823 23.8636 139.338 23.1136C138.853 22.3636 138.615 21.4167 138.622 20.2727V3.36364Z" fill="#6C584C"/>
</svg>
