<svg width="48" height="39" viewBox="0 0 48 39" fill="none" xmlns="http://www.w3.org/2000/svg">
<path d="M45.1036 18.6943H10.9036C10.7786 18.6954 10.6539 18.7088 10.5312 18.7343L10.3716 18.7902C10.3038 18.8041 10.2376 18.8256 10.174 18.8541C10.1135 18.8813 10.055 18.9133 9.99922 18.95C9.94637 18.9718 9.89549 18.9985 9.84722 19.0299C9.63957 19.1788 9.46146 19.3688 9.32282 19.5892L9.23922 19.741C9.2043 19.8024 9.17381 19.8665 9.14802 19.9328C9.14802 19.9967 9.14802 20.0686 9.08722 20.1325C9.06853 20.1873 9.0533 20.2434 9.04162 20.3003C8.98613 20.5634 8.98613 20.8362 9.04162 21.0993C9.05327 21.1588 9.0685 21.2176 9.08722 21.2751C9.08722 21.339 9.12522 21.4109 9.14802 21.4748C9.17082 21.5387 9.20882 21.6027 9.23922 21.6666L9.32282 21.8184C9.38862 21.9298 9.4678 22.0319 9.55842 22.122L24.9028 38.2376C25.2607 38.6021 25.7403 38.8042 26.2385 38.8004C26.7367 38.7966 27.2136 38.5872 27.5664 38.2174C27.9192 37.8475 28.1197 37.3468 28.1247 36.8231C28.1297 36.2993 27.9388 35.7944 27.5932 35.4172L15.4864 22.6893H45.1264C45.6303 22.6893 46.1136 22.4788 46.4699 22.1042C46.8262 21.7296 47.0264 21.2216 47.0264 20.6918C47.0264 20.162 46.8262 19.654 46.4699 19.2794C46.1136 18.9048 45.6303 18.6943 45.1264 18.6943H45.1036Z" fill="#111111"/>
<path d="M25.04 1.4123L13.3623 13.6891C12.6203 14.4692 12.6203 15.7339 13.3623 16.514C14.1043 17.2941 15.3073 17.2941 16.0493 16.514L27.727 4.23716C28.469 3.45709 28.469 2.19236 27.727 1.4123C26.985 0.632234 25.782 0.632233 25.04 1.4123Z" fill="#00C569"/>
</svg>
