<svg width="32" height="32" viewBox="0 0 32 32" fill="none" xmlns="http://www.w3.org/2000/svg">
<path d="M23.5 16.0002C22.459 15.9798 21.4309 16.2326 20.518 16.7332C19.4072 16.2528 18.2102 16.0034 17 16.0002H13C10.6139 16.0028 8.32622 16.9519 6.63896 18.6391C4.95171 20.3264 4.00265 22.614 4 25.0002V27.0002C4 27.7958 4.31607 28.5589 4.87868 29.1215C5.44129 29.6841 6.20435 30.0002 7 30.0002H23.5C26.065 30.0002 28 28.7102 28 27.0002V19.0002C28 17.2902 26.065 16.0002 23.5 16.0002ZM26 23.0002C26 23.2902 25.124 24.0002 23.5 24.0002C21.876 24.0002 21 23.2902 21 23.0002V21.5202C22.6052 22.1602 24.3948 22.1602 26 21.5202V23.0002ZM13.618 28.0002L13.243 27.2492C13.1305 27.0252 13.1063 26.7672 13.175 26.5262L14.754 21.0002H15.246L16.825 26.5272C16.8941 26.7678 16.8698 27.0256 16.757 27.2492L16.382 28.0002H13.618ZM18.748 25.9782L17.068 20.1002L18.068 18.0922C18.4191 18.1465 18.7655 18.2281 19.104 18.3362C19.0355 18.5509 19.0005 18.7748 19 19.0002V27.0002C19.0059 27.3492 19.0943 27.6919 19.258 28.0002H18.6C18.8833 27.364 18.9357 26.6488 18.748 25.9782ZM26 19.0002C26 19.2902 25.124 20.0002 23.5 20.0002C21.876 20.0002 21 19.2902 21 19.0002C21 18.7102 21.876 18.0002 23.5 18.0002C25.124 18.0002 26 18.7102 26 19.0002ZM15.882 18.0002L15.382 19.0002H14.618L14.118 18.0002H15.882ZM6 27.0002V25.0002C6.00197 23.331 6.60031 21.7175 7.6871 20.4507C8.77389 19.1838 10.2776 18.347 11.927 18.0912L12.932 20.1002L11.252 25.9772C11.0643 26.6482 11.1166 27.3636 11.4 28.0002H7C6.73478 28.0002 6.48043 27.8948 6.29289 27.7073C6.10536 27.5197 6 27.2654 6 27.0002ZM23.5 28.0002C21.876 28.0002 21 27.2902 21 27.0002V25.5202C22.6052 26.1602 24.3948 26.1602 26 25.5202V27.0002C26 27.2902 25.124 28.0002 23.5 28.0002Z" fill="white"/>
<path d="M22 9C22 7.61553 21.5895 6.26216 20.8203 5.11101C20.0511 3.95987 18.9579 3.06266 17.6788 2.53285C16.3997 2.00303 14.9922 1.86441 13.6344 2.13451C12.2765 2.4046 11.0292 3.07129 10.0503 4.05026C9.07129 5.02922 8.4046 6.2765 8.13451 7.63437C7.86441 8.99224 8.00303 10.3997 8.53285 11.6788C9.06266 12.9579 9.95987 14.0511 11.111 14.8203C12.2622 15.5895 13.6155 16 15 16C16.8559 15.9979 18.6351 15.2597 19.9474 13.9474C21.2597 12.6351 21.9979 10.8559 22 9ZM15 4C15.798 4.0057 16.5827 4.20471 17.287 4.58C16.6323 5.34067 15.8208 5.95076 14.9083 6.36847C13.9957 6.78617 13.0036 7.00161 12 7C11.5018 6.9945 11.0056 6.9355 10.52 6.824C10.9264 5.98025 11.5621 5.26792 12.3544 4.76851C13.1466 4.2691 14.0635 4.00278 15 4ZM15 14C13.6744 13.9984 12.4036 13.4711 11.4662 12.5338C10.5289 11.5964 10.0016 10.3256 10 9C10 8.922 10.02 8.849 10.023 8.771C10.6714 8.92067 11.3345 8.99748 12 9C13.3018 9.00257 14.5885 8.72117 15.7703 8.1754C16.9522 7.62963 18.0008 6.83264 18.843 5.84C19.5857 6.72598 19.995 7.84391 20 9C19.9984 10.3256 19.4711 11.5964 18.5338 12.5338C17.5964 13.4711 16.3256 13.9984 15 14Z" fill="white"/>
</svg>
