<svg width="38" height="38" viewBox="0 0 38 38" fill="none" xmlns="http://www.w3.org/2000/svg">
<path d="M9.08869 5.93701L2.375 13.2135V13.5803V14.0178L6.82207 17.9457L7.12928 17.6132L7.59759 17.916L8.24573 21.616C8.27224 21.7651 8.33388 21.906 8.42557 22.0267C8.2798 22.3624 8.16978 22.7087 8.14833 23.0695C8.11462 23.6357 8.2803 24.328 8.84142 24.7475C9.40254 25.1671 10.0684 25.0926 10.5536 24.8632C10.5714 24.8542 10.5847 24.8408 10.6023 24.8273C10.5111 25.0899 10.4502 25.3618 10.4337 25.6383C10.4 26.2045 10.5582 26.9081 11.1193 27.3275C11.5975 27.6848 12.1478 27.6668 12.6029 27.5142C12.6209 28.0299 12.7962 28.599 13.2847 28.9643C13.8044 29.3525 14.4082 29.3108 14.8807 29.1214C14.913 29.6183 15.0918 30.158 15.5551 30.5043C16.1162 30.9239 16.7858 30.8378 17.271 30.6093C17.5272 30.4886 17.7599 30.318 17.9716 30.1161C18.4987 30.5739 19.0563 31.0548 19.65 31.4503C20.1278 31.7685 20.6363 32.0607 21.3097 32.0628C21.9804 32.0654 22.6808 31.5762 23.0181 30.938C23.1254 30.737 23.049 30.5735 23.0668 30.3811C23.2045 30.426 23.3052 30.5144 23.4602 30.5306C23.9207 30.5813 24.4908 30.3067 24.8614 29.8993C25.2546 29.5393 25.554 29.0186 25.5282 28.5463C25.5206 28.4045 25.4312 28.3121 25.4008 28.1841C25.7507 28.0567 26.1103 27.9427 26.3899 27.6649C26.7016 27.3655 26.812 26.9365 26.877 26.5287C26.9152 26.5322 26.9389 26.5557 26.9781 26.5646C27.4858 26.5871 28.0738 26.3627 28.4655 25.9477C28.8927 25.5061 29.0797 24.8144 28.9675 24.2809C28.8543 23.7429 28.5791 23.3469 28.2894 22.9841C28.2473 22.9334 28.2093 22.9016 28.1658 22.8495C29.0178 21.0412 29.8376 19.1436 30.4136 17.1239L31.3465 18.0583L32.0284 17.4117C35.3281 14.2653 32.0255 17.4154 35.3253 14.2724L35.625 13.9775V13.189L35.3403 12.9049L28.6153 6.1515L23.9285 10.6176L24.6553 11.3465L24.2394 11.705C21.3857 11.3321 18.9145 11.6916 16.6079 12.0003C16.4871 12.0207 16.3714 12.064 16.2669 12.1279C16.0063 12.2755 15.7836 12.4199 15.5401 12.5653C14.761 12.0815 14.0032 11.5437 13.2623 10.9621L13.9441 10.2222L9.08869 5.93701ZM9.23106 8.60927L11.0968 10.2685C11.0746 10.2892 11.0533 10.311 11.0331 10.3337L6.58605 15.1809L4.71281 13.5103L9.23106 8.60927ZM28.5854 8.82239L33.3022 13.5538C32.66 14.1664 32.0384 14.7427 31.3765 15.3739L26.6597 10.6574L28.5854 8.82239ZM11.996 12.3354C12.606 12.8178 13.228 13.2581 13.858 13.6734C13.1327 14.2129 12.5562 14.7757 12.1308 15.3776C11.9615 15.5706 11.8189 15.7717 11.715 15.983C11.6233 16.1639 11.4274 16.4537 11.3403 16.9246V16.9285C11.3385 16.9374 11.342 16.9509 11.3403 16.9644C11.265 17.4345 11.3966 18.0334 11.7449 18.5079L11.7488 18.5117C11.7664 18.5367 11.7851 18.5608 11.805 18.584C11.8063 18.5853 11.8075 18.5866 11.8088 18.5878C11.829 18.6105 11.8503 18.6322 11.8725 18.6529C11.9566 18.732 12.0543 18.7952 12.161 18.8396C13.5579 19.4008 14.9605 19.3046 16.2109 18.9257C16.8369 18.7363 17.435 18.4801 18.013 18.1969C18.5565 17.9308 19.0786 17.6394 19.594 17.3561C19.6376 17.3426 19.6549 17.3427 19.6951 17.3292C19.7535 17.3158 19.8135 17.3023 19.8712 17.2843C21.9817 18.8134 23.8856 20.3937 25.0189 22.2249C25.0383 22.2573 25.0595 22.2885 25.0826 22.3183C25.3328 22.6334 25.6132 22.925 25.8843 23.204C25.7938 23.392 25.7051 23.5778 25.6146 23.7644C25.3909 23.5755 25.1656 23.3799 24.9552 23.1889C24.9504 23.1846 24.945 23.1798 24.9403 23.1753C24.7485 23.0216 24.5048 22.9473 24.2596 22.9677C24.0144 22.9881 23.7864 23.1017 23.6228 23.285C23.4593 23.4684 23.3726 23.7075 23.3807 23.9528C23.3888 24.1981 23.4911 24.4309 23.6665 24.6031C23.6705 24.6067 23.6774 24.612 23.6814 24.6165V24.6204C24.1812 25.053 24.7104 25.5825 24.9402 25.9583C25.0551 26.1463 25.0822 26.2788 25.0826 26.2945C25.083 26.308 25.1266 26.2366 25.0638 26.2984C25.0562 26.3057 25.0487 26.3131 25.0413 26.3207C24.8363 26.5267 24.7732 26.5133 24.794 26.5115C24.8148 26.5096 24.8017 26.5249 24.6592 26.4325C24.3801 26.2457 23.8493 25.642 23.1681 25.0422C23.1627 25.0377 23.1621 25.0333 23.1567 25.0288C23.147 25.0198 23.1441 25.0198 23.1343 25.0063C22.9443 24.8416 22.697 24.7581 22.4457 24.7736C22.1944 24.7892 21.9594 24.9026 21.7912 25.0895C21.6231 25.2764 21.5353 25.5217 21.5469 25.7725C21.5584 26.0234 21.6683 26.2595 21.853 26.4303C22.4498 26.9828 23.0972 27.6728 23.4078 28.1794C23.5409 28.3961 23.5698 28.5285 23.5838 28.5864C23.5813 28.5894 23.5788 28.5923 23.5763 28.5953C23.5015 28.5729 23.3691 28.5374 23.1605 28.4086C22.6572 28.0998 22.0137 27.5089 21.6094 27.082C21.4391 26.9066 21.2079 26.8027 20.9633 26.7919C20.7187 26.781 20.4792 26.8639 20.2939 27.0235C20.1086 27.183 19.9914 27.4073 19.9664 27.6502C19.9414 27.8932 20.0105 28.1364 20.1596 28.3302C20.4074 28.6434 20.788 29.1408 21.0362 29.5785C21.1604 29.7975 21.2438 30.0022 21.2723 30.1129C21.2767 30.1264 21.2744 30.1219 21.2761 30.1354C21.24 30.1264 21.0289 30.0703 20.7141 29.863C20.2248 29.5376 19.5947 28.9779 18.9383 28.4278C18.9822 28.2514 19.0361 28.0755 19.0469 27.8934C19.0807 27.3271 18.9187 26.6348 18.3576 26.2154C17.838 25.8271 17.234 25.8653 16.7616 26.0547C16.7286 25.5586 16.5531 25.021 16.091 24.6756C15.6128 24.3183 15.0587 24.3363 14.6036 24.4889C14.5856 23.9732 14.4104 23.4042 13.9218 23.0389C13.4101 22.6565 12.8175 22.6925 12.3482 22.8747L12.2021 22.7553C12.2573 22.5551 12.3171 22.354 12.3295 22.1463C12.3632 21.58 12.205 20.8766 11.6439 20.4571C11.0964 20.0477 10.4476 20.1213 9.96549 20.3376L9.41461 17.1828C9.39201 17.0529 9.34274 16.9291 9.26989 16.819C9.19703 16.709 9.10217 16.6152 8.99125 16.5435L8.44427 16.1921L11.996 12.3354ZM26.0078 12.7012L28.8176 15.5228C28.3591 17.5052 27.6118 19.4333 26.7571 21.3119C26.7126 21.2612 26.6267 21.1768 26.5885 21.1288L26.6522 21.222C25.7625 19.7844 24.5605 18.5577 23.2279 17.425C23.3226 17.2062 23.3321 16.9601 23.2545 16.7348C23.1768 16.5095 23.0178 16.3212 22.8083 16.2066C22.4413 15.9652 21.9825 15.6115 21.3097 15.4032C20.9417 15.2887 20.5173 15.2478 20.0621 15.2873C20.0323 15.2898 19.9955 15.3009 19.9647 15.3009C19.616 15.3368 19.2496 15.4188 18.8707 15.5696C18.8606 15.5769 18.8506 15.5844 18.8408 15.5921C18.8178 15.6031 18.7953 15.6151 18.7733 15.628C18.226 15.9282 17.6864 16.2224 17.1661 16.4763C16.8088 16.6505 16.4703 16.7699 16.1283 16.8987C15.9738 16.9566 15.8113 17.0432 15.66 17.0894C15.6575 17.0901 15.655 17.0924 15.6525 17.0932C14.8374 17.3383 14.0974 17.2652 13.3297 17.0574C13.3627 16.9851 13.3655 16.9743 13.4346 16.837C13.4346 16.8357 13.4346 16.8344 13.4346 16.8331L13.4384 16.8293C13.4413 16.8248 13.4505 16.8158 13.4534 16.8068C13.7937 16.1465 15.1331 15.0193 17.0725 13.8917C19.5411 13.5542 21.7848 13.1102 24.453 13.5663C24.59 13.589 24.7303 13.5817 24.8642 13.5449C24.9981 13.5082 25.1224 13.4429 25.2286 13.3536L26.0078 12.7012Z" fill="white"/>
</svg>
