<svg
  width="1126"
  height="160"
  viewBox="0 0 1126 160"
  fill="none"
  xmlns="http://www.w3.org/2000/svg"
>
<path
    d="M35.2549 156V36.4688H0.0986328V0.65332H120.399V36.4688H84.4736V156H35.2549ZM218.727 151.276C211.842 153.546 204.408 155.414 196.424 156.879C188.441 158.417 180.128 159.186 171.485 159.186C162.037 159.186 153.028 157.941 144.459 155.451C135.89 152.96 128.346 149.079 121.827 143.805C115.309 138.532 110.108 131.867 106.227 123.81C102.418 115.68 100.514 106.012 100.514 94.8062C100.514 88.4341 101.502 82.5381 103.48 77.1182C105.458 71.625 108.131 66.6445 111.5 62.1768C114.942 57.709 118.934 53.7539 123.475 50.3115C128.089 46.8691 132.997 43.9761 138.197 41.6323C143.47 39.2886 148.89 37.5308 154.457 36.3589C160.023 35.1138 165.479 34.4912 170.826 34.4912C179.249 34.4912 186.683 35.4434 193.128 37.3477C199.574 39.1787 204.92 41.6689 209.168 44.8184C213.49 47.9678 216.749 51.6299 218.946 55.8047C221.144 59.9795 222.242 64.4106 222.242 69.0981C222.242 74.811 221.253 79.6816 219.276 83.71C217.372 87.7383 214.771 91.144 211.476 93.9272C208.253 96.6372 204.481 98.7979 200.16 100.409C195.912 101.947 191.407 103.156 186.646 104.035C181.886 104.84 177.015 105.353 172.035 105.573C167.127 105.792 162.44 105.902 157.972 105.902C156.434 105.902 154.933 105.902 153.468 105.902C152.076 105.829 150.685 105.792 149.293 105.792C149.879 109.967 151.014 113.483 152.699 116.339C154.457 119.196 156.617 121.54 159.181 123.371C161.817 125.128 164.82 126.41 168.189 127.216C171.632 127.948 175.294 128.314 179.176 128.314C182.105 128.314 185.218 128.095 188.514 127.655C191.883 127.216 195.252 126.63 198.622 125.897C202.064 125.092 205.47 124.213 208.839 123.261C212.281 122.235 215.577 121.173 218.727 120.075V151.276ZM148.304 88.8735C150.062 88.8003 152.296 88.6904 155.006 88.5439C157.789 88.3975 160.719 88.1411 163.795 87.7749C166.871 87.4087 169.947 86.896 173.023 86.2368C176.1 85.5776 178.883 84.7354 181.373 83.71C183.863 82.6846 185.877 81.4028 187.416 79.8647C188.954 78.3267 189.723 76.459 189.723 74.2617C189.723 70.5264 188.221 67.5601 185.218 65.3628C182.289 63.0923 178.187 61.957 172.914 61.957C170.497 61.957 167.896 62.3232 165.113 63.0557C162.33 63.7148 159.73 65.0332 157.313 67.0107C154.896 68.9883 152.845 71.7349 151.161 75.2505C149.476 78.7661 148.524 83.3071 148.304 88.8735ZM343.751 72.9434C336.427 69.5742 329.249 66.9741 322.218 65.1431C315.26 63.2388 309.144 62.2866 303.871 62.2866C298.304 62.2866 294.349 62.8359 292.005 63.9346C289.662 64.96 288.49 66.791 288.49 69.4277C288.49 71.7715 290.211 73.6392 293.653 75.0308C297.096 76.3491 302.149 77.8872 308.814 79.645C315.479 81.4028 321.449 83.3438 326.722 85.4678C331.996 87.5918 336.463 90.2285 340.125 93.3779C343.861 96.5273 346.681 100.299 348.585 104.694C350.562 109.088 351.551 114.472 351.551 120.844C351.551 126.557 350.453 131.793 348.255 136.554C346.058 141.242 342.726 145.27 338.258 148.639C333.79 152.008 328.15 154.608 321.339 156.439C314.527 158.271 306.507 159.186 297.279 159.186C289.076 159.186 280.836 158.563 272.56 157.318C264.283 156.146 255.934 154.022 247.511 150.946V116.999C255.055 120.294 262.635 122.931 270.252 124.909C277.87 126.886 285.121 127.875 292.005 127.875C304.383 127.875 310.572 125.312 310.572 120.185C310.572 119.306 310.279 118.5 309.693 117.768C309.107 117.035 308.009 116.339 306.397 115.68C304.859 114.948 302.662 114.215 299.806 113.483C297.022 112.677 293.434 111.725 289.039 110.626C282.96 109.162 277.21 107.294 271.791 105.023C266.444 102.68 261.756 99.8599 257.728 96.564C253.773 93.1948 250.624 89.2764 248.28 84.8086C246.009 80.3408 244.874 75.2505 244.874 69.5376C244.874 64.4106 245.936 59.6865 248.06 55.3652C250.257 51.0439 253.517 47.3452 257.838 44.269C262.232 41.1929 267.652 38.8125 274.098 37.1279C280.616 35.3701 288.16 34.4912 296.729 34.4912C301.71 34.4912 306.471 34.7109 311.012 35.1504C315.626 35.5898 319.984 36.1392 324.085 36.7983C328.187 37.3843 331.996 38.0435 335.511 38.7759C339.1 39.4351 342.396 40.0576 345.399 40.6436L343.751 72.9434ZM437.464 159.186C430.653 159.186 424.134 158.344 417.909 156.659C411.683 155.048 406.19 152.301 401.429 148.419C396.742 144.464 392.97 139.264 390.113 132.819C387.33 126.3 385.938 118.207 385.938 108.539V64.7036H364.076V57.5625L415.821 1.3125H433.399V37.4575H468.556C467.677 41.8521 466.871 46.2832 466.139 50.751C465.479 55.2188 465.113 59.8696 465.04 64.7036H433.399V108.1C433.399 110.736 433.583 113.3 433.949 115.79C434.388 118.207 435.23 120.368 436.476 122.272C437.721 124.103 439.515 125.604 441.859 126.776C444.203 127.875 447.315 128.424 451.197 128.424C453.688 128.424 456.434 128.205 459.437 127.765C462.44 127.252 465.846 126.337 469.654 125.019L472.291 153.473C467.677 155.158 462.367 156.513 456.361 157.538C450.428 158.637 444.129 159.186 437.464 159.186ZM574.244 156V0.65332H628.297C641.627 0.65332 653.602 2.22803 664.222 5.37744C674.842 8.45361 683.814 13.1777 691.139 19.5498C698.536 25.8486 704.176 33.7954 708.058 43.3901C712.013 52.9116 713.99 64.1177 713.99 77.0083C713.99 86.8228 712.965 95.6118 710.914 103.375C708.937 111.066 706.08 117.841 702.345 123.7C698.683 129.56 694.215 134.54 688.941 138.642C683.741 142.67 677.955 146.002 671.583 148.639C665.211 151.203 658.326 153.07 650.929 154.242C643.604 155.414 635.914 156 627.857 156H574.244ZM623.463 120.844H626.759C632.472 120.844 637.672 120.331 642.359 119.306C647.047 118.207 651.039 116.083 654.334 112.934C657.704 109.784 660.267 105.353 662.025 99.6401C663.856 93.9272 664.771 86.3833 664.771 77.0083C664.771 68.5122 663.966 61.4443 662.354 55.8047C660.743 50.0918 658.363 45.5508 655.213 42.1816C652.064 38.7393 648.182 36.3223 643.568 34.9307C638.954 33.4658 633.68 32.7334 627.748 32.7334H623.463V120.844ZM770.46 159.186C765.772 159.186 761.268 158.527 756.947 157.208C752.699 155.89 748.927 153.876 745.631 151.166C742.335 148.456 739.698 145.05 737.721 140.949C735.816 136.774 734.864 131.867 734.864 126.227C734.864 120.807 735.743 116.12 737.501 112.165C739.259 108.136 741.603 104.694 744.532 101.837C747.535 98.981 751.014 96.6372 754.969 94.8062C758.998 92.9019 763.246 91.437 767.713 90.4116C772.181 89.313 776.759 88.5806 781.446 88.2144C786.207 87.7749 790.821 87.5552 795.289 87.5552C798.365 87.5552 801.332 87.6284 804.188 87.7749C807.044 87.9214 809.718 88.1045 812.208 88.3242C812.062 83.71 811.183 79.9014 809.571 76.8984C807.96 73.8223 805.836 71.4053 803.199 69.6475C800.562 67.8164 797.486 66.5347 793.971 65.8022C790.455 65.0698 786.756 64.7036 782.875 64.7036C779.286 64.7036 775.587 64.96 771.778 65.4727C768.043 65.9121 764.381 66.498 760.792 67.2305C757.203 67.8896 753.761 68.6221 750.465 69.4277C747.242 70.2334 744.386 70.9658 741.896 71.625V40.8633C745.484 40.0576 749.33 39.2886 753.431 38.5562C757.606 37.7505 761.927 37.0547 766.395 36.4688C770.863 35.8828 775.404 35.4067 780.018 35.0405C784.706 34.6743 789.32 34.4912 793.861 34.4912C799.5 34.4912 805.03 34.8574 810.45 35.5898C815.943 36.249 821.107 37.3843 825.941 38.9956C830.848 40.6069 835.353 42.7676 839.454 45.4775C843.629 48.1875 847.181 51.5566 850.111 55.585C853.114 59.54 855.458 64.2275 857.142 69.6475C858.827 75.0674 859.669 81.3296 859.669 88.4341V156H814.405V136.334C812.647 139.923 810.194 143.146 807.044 146.002C803.895 148.786 800.343 151.166 796.388 153.144C792.433 155.121 788.221 156.623 783.753 157.648C779.286 158.673 774.854 159.186 770.46 159.186ZM789.027 133.368C791.078 133.368 793.421 132.819 796.058 131.72C798.768 130.548 801.295 128.791 803.639 126.447C806.056 124.103 808.07 121.137 809.681 117.548C811.366 113.959 812.208 109.674 812.208 104.694H808.583C805.067 104.694 801.441 105.06 797.706 105.792C794.044 106.525 790.675 107.624 787.599 109.088C784.522 110.553 781.996 112.348 780.018 114.472C778.041 116.596 777.052 119.049 777.052 121.833C777.052 124.03 777.418 125.861 778.15 127.326C778.883 128.791 779.798 129.999 780.897 130.951C782.069 131.83 783.351 132.453 784.742 132.819C786.207 133.185 787.635 133.368 789.027 133.368ZM950.526 159.186C943.714 159.186 937.196 158.344 930.97 156.659C924.745 155.048 919.251 152.301 914.491 148.419C909.803 144.464 906.031 139.264 903.175 132.819C900.392 126.3 899 118.207 899 108.539V64.7036H877.137V57.5625L928.883 1.3125H946.461V37.4575H981.617C980.738 41.8521 979.933 46.2832 979.2 50.751C978.541 55.2188 978.175 59.8696 978.102 64.7036H946.461V108.1C946.461 110.736 946.644 113.3 947.01 115.79C947.45 118.207 948.292 120.368 949.537 122.272C950.782 124.103 952.577 125.604 954.92 126.776C957.264 127.875 960.377 128.424 964.259 128.424C966.749 128.424 969.496 128.205 972.499 127.765C975.501 127.252 978.907 126.337 982.716 125.019L985.353 153.473C980.738 155.158 975.428 156.513 969.422 157.538C963.49 158.637 957.191 159.186 950.526 159.186ZM1035.89 159.186C1031.2 159.186 1026.7 158.527 1022.38 157.208C1018.13 155.89 1014.36 153.876 1011.06 151.166C1007.76 148.456 1005.13 145.05 1003.15 140.949C1001.25 136.774 1000.29 131.867 1000.29 126.227C1000.29 120.807 1001.17 116.12 1002.93 112.165C1004.69 108.136 1007.03 104.694 1009.96 101.837C1012.96 98.981 1016.44 96.6372 1020.4 94.8062C1024.43 92.9019 1028.68 91.437 1033.14 90.4116C1037.61 89.313 1042.19 88.5806 1046.88 88.2144C1051.64 87.7749 1056.25 87.5552 1060.72 87.5552C1063.79 87.5552 1066.76 87.6284 1069.62 87.7749C1072.47 87.9214 1075.15 88.1045 1077.64 88.3242C1077.49 83.71 1076.61 79.9014 1075 76.8984C1073.39 73.8223 1071.27 71.4053 1068.63 69.6475C1065.99 67.8164 1062.92 66.5347 1059.4 65.8022C1055.88 65.0698 1052.19 64.7036 1048.3 64.7036C1044.72 64.7036 1041.02 64.96 1037.21 65.4727C1033.47 65.9121 1029.81 66.498 1026.22 67.2305C1022.63 67.8896 1019.19 68.6221 1015.89 69.4277C1012.67 70.2334 1009.82 70.9658 1007.33 71.625V40.8633C1010.91 40.0576 1014.76 39.2886 1018.86 38.5562C1023.04 37.7505 1027.36 37.0547 1031.82 36.4688C1036.29 35.8828 1040.83 35.4067 1045.45 35.0405C1050.14 34.6743 1054.75 34.4912 1059.29 34.4912C1064.93 34.4912 1070.46 34.8574 1075.88 35.5898C1081.37 36.249 1086.54 37.3843 1091.37 38.9956C1096.28 40.6069 1100.78 42.7676 1104.88 45.4775C1109.06 48.1875 1112.61 51.5566 1115.54 55.585C1118.54 59.54 1120.89 64.2275 1122.57 69.6475C1124.26 75.0674 1125.1 81.3296 1125.1 88.4341V156H1079.83V136.334C1078.08 139.923 1075.62 143.146 1072.47 146.002C1069.32 148.786 1065.77 151.166 1061.82 153.144C1057.86 155.121 1053.65 156.623 1049.18 157.648C1044.72 158.673 1040.28 159.186 1035.89 159.186ZM1054.46 133.368C1056.51 133.368 1058.85 132.819 1061.49 131.72C1064.2 130.548 1066.72 128.791 1069.07 126.447C1071.49 124.103 1073.5 121.137 1075.11 117.548C1076.8 113.959 1077.64 109.674 1077.64 104.694H1074.01C1070.5 104.694 1066.87 105.06 1063.14 105.792C1059.47 106.525 1056.1 107.624 1053.03 109.088C1049.95 110.553 1047.43 112.348 1045.45 114.472C1043.47 116.596 1042.48 119.049 1042.48 121.833C1042.48 124.03 1042.85 125.861 1043.58 127.326C1044.31 128.791 1045.23 129.999 1046.33 130.951C1047.5 131.83 1048.78 132.453 1050.17 132.819C1051.64 133.185 1053.06 133.368 1054.46 133.368Z"
    fill="#FFC700"
  />
</svg>
