<svg width="194" height="138" viewBox="0 0 194 138" fill="none" xmlns="http://www.w3.org/2000/svg">
<path opacity="0.40206" d="M157.234 95.4131H39.7123V137.006H157.234V95.4131Z" fill="url(#paint0_linear_914_198)"/>
<path opacity="0.40206" d="M157.241 95.415V137.006C169.776 137.084 187.543 127.687 187.543 116.207C187.543 104.728 173.555 95.415 157.241 95.415Z" fill="url(#paint1_radial_914_198)"/>
<path opacity="0.40206" d="M39.7123 95.415V137.006C27.1846 137.084 9.41064 127.687 9.41064 116.207C9.41064 104.728 23.4034 95.415 39.7123 95.415Z" fill="url(#paint2_radial_914_198)"/>
<path d="M153.235 24.6455H40.1938C34.6155 24.6455 30.0934 29.1122 30.0934 34.6222V110.973C30.0934 116.483 34.6155 120.95 40.1938 120.95H153.235C158.813 120.95 163.335 116.483 163.335 110.973V34.6222C163.335 29.1122 158.813 24.6455 153.235 24.6455Z" fill="url(#paint3_linear_914_198)" stroke="#A0670C"/>
<path opacity="0.48101" d="M153.243 28.6836H39.7654C36.8091 28.6836 34.4125 31.0802 34.4125 34.0365V111.143C34.4125 114.1 36.8091 116.496 39.7654 116.496H153.243C156.199 116.496 158.596 114.1 158.596 111.143V34.0365C158.596 31.0802 156.199 28.6836 153.243 28.6836Z" stroke="url(#paint4_linear_914_198)"/>
<path fill-rule="evenodd" clip-rule="evenodd" d="M35.5409 29.9452L56.5834 1.56732L134.896 1.14648L156.646 29.3702L35.5409 29.9452Z" fill="url(#paint5_linear_914_198)" stroke="url(#paint6_linear_914_198)"/>
<path d="M158.483 29.0247L180.121 58.9997H15.5042L34.9375 29.0039L158.483 29.0247Z" fill="url(#paint7_linear_914_198)" stroke="#A0670C" stroke-linecap="round" stroke-linejoin="round"/>
<path d="M135.871 1.05859L155.383 29.8998L193.025 48.1707L159.213 11.0373L135.871 1.05859Z" fill="url(#paint8_linear_914_198)" stroke="#A0670C" stroke-linecap="round" stroke-linejoin="round"/>
<path d="M55.7417 1.47949L39.1746 29.4791L1.11377 47.7499L34.9242 10.6166L55.7417 1.47949Z" fill="#F8E8CF" stroke="#A0670C" stroke-linecap="round" stroke-linejoin="round"/>
<path d="M153.271 29.4832L171.829 54.7207H22.5333L39.7887 28.9707L153.271 29.4832Z" stroke="#F4E3CA"/>
<path opacity="0.87975" d="M39.2179 29.2169L53.3208 5.1377L138.646 4.8252L154.654 29.2085L39.2179 29.2169Z" stroke="url(#paint9_linear_914_198)" stroke-linecap="round" stroke-linejoin="round"/>
<defs>
<linearGradient id="paint0_linear_914_198" x1="84.2221" y1="95.4131" x2="84.2221" y2="137.007" gradientUnits="userSpaceOnUse">
<stop stop-opacity="0"/>
<stop offset="0.5"/>
<stop offset="1" stop-opacity="0"/>
</linearGradient>
<radialGradient id="paint1_radial_914_198" cx="0" cy="0" r="1" gradientUnits="userSpaceOnUse" gradientTransform="translate(157.987 115.965) scale(28.5114 20.062)">
<stop/>
<stop offset="1" stop-opacity="0"/>
</radialGradient>
<radialGradient id="paint2_radial_914_198" cx="0" cy="0" r="1" gradientUnits="userSpaceOnUse" gradientTransform="translate(38.9735 115.965) rotate(180) scale(28.5114 20.062)">
<stop/>
<stop offset="1" stop-opacity="0"/>
</radialGradient>
<linearGradient id="paint3_linear_914_198" x1="103.125" y1="102.687" x2="103.125" y2="55.1038" gradientUnits="userSpaceOnUse">
<stop stop-color="#EABA6F"/>
<stop offset="1" stop-color="#B97A1B"/>
</linearGradient>
<linearGradient id="paint4_linear_914_198" x1="76.9458" y1="43.9669" x2="124.062" y2="158.45" gradientUnits="userSpaceOnUse">
<stop stop-color="white"/>
<stop offset="1" stop-color="white" stop-opacity="0.68639"/>
</linearGradient>
<linearGradient id="paint5_linear_914_198" x1="66.2876" y1="15.5486" x2="141.475" y2="15.5486" gradientUnits="userSpaceOnUse">
<stop stop-color="#A36D18"/>
<stop offset="1" stop-color="#D79020"/>
</linearGradient>
<linearGradient id="paint6_linear_914_198" x1="90.2792" y1="1.65648" x2="90.9667" y2="27.7536" gradientUnits="userSpaceOnUse">
<stop stop-color="#A0670C"/>
<stop offset="1" stop-color="#A0670C" stop-opacity="0"/>
</linearGradient>
<linearGradient id="paint7_linear_914_198" x1="104.754" y1="63.9183" x2="99.6353" y2="28.7548" gradientUnits="userSpaceOnUse">
<stop stop-color="#E9B96E"/>
<stop offset="1" stop-color="#F1D19E"/>
</linearGradient>
<linearGradient id="paint8_linear_914_198" x1="150.204" y1="22.0915" x2="195.108" y2="24.6165" gradientUnits="userSpaceOnUse">
<stop stop-color="#DE9523"/>
<stop offset="1" stop-color="#A36D18"/>
</linearGradient>
<linearGradient id="paint9_linear_914_198" x1="124.258" y1="17.021" x2="72.7333" y2="12.3919" gradientUnits="userSpaceOnUse">
<stop stop-color="#FBF0E0"/>
<stop offset="1" stop-color="#F0CE99"/>
</linearGradient>
</defs>
</svg>
