<svg width="30" height="30" viewBox="0 0 30 30" fill="none" xmlns="http://www.w3.org/2000/svg">
<path d="M5.99999 9.00014C7.10434 9.00014 8.04691 8.60966 8.82799 7.82837C9.60933 7.04713 10 6.10428 10 5.00015C10 3.89613 9.60933 2.95328 8.82799 2.17194C8.04691 1.3907 7.10428 1 5.99999 1C4.89575 1 3.95312 1.3907 3.17188 2.17194C2.3907 2.95328 2 3.89591 2 5.00015C2 6.1045 2.3907 7.04713 3.17188 7.82837C3.95312 8.60944 4.89575 9.00014 5.99999 9.00014Z" fill="white"/>
<path d="M10.7579 15.2426C11.9297 16.4141 13.3436 17.0001 15.0001 17.0001C16.6567 17.0001 18.0705 16.4141 19.2423 15.2426C20.414 14.0703 21 12.6563 21 11.0001C21 9.34384 20.414 7.92984 19.2423 6.75791C18.0705 5.58597 16.6567 5 15.0001 5C13.3436 5 11.9296 5.58608 10.7579 6.75791C9.58608 7.92968 9 9.34368 9 11.0001C9 12.6566 9.58608 14.0705 10.7579 15.2426Z" fill="white"/>
<path d="M24.0003 9.00014C25.1042 9.00014 26.047 8.60966 26.8282 7.82837C27.6094 7.04713 27.9998 6.10428 27.9998 5.00015C27.9998 3.89613 27.6094 2.95328 26.8282 2.17194C26.047 1.3907 25.1042 1 24.0003 1C22.8957 1 21.9531 1.3907 21.1719 2.17194C20.3909 2.95328 20.0002 3.89591 20.0002 5.00015C20.0002 6.1045 20.3909 7.04713 21.1719 7.82837C21.9531 8.60944 22.8957 9.00014 24.0003 9.00014Z" fill="white"/>
<path d="M28.0623 9.00049C28.0002 9.00049 27.7736 9.10989 27.3829 9.32864C26.9926 9.54749 26.4845 9.76886 25.8597 9.99287C25.2349 10.2166 24.6148 10.3287 24.0004 10.3287C23.3022 10.3287 22.61 10.209 21.9223 9.96928C21.974 10.3545 22.0002 10.6984 22.0002 11.0005C22.0002 12.4484 21.5783 13.7817 20.7341 15.0004C22.422 15.0527 23.8019 15.7192 24.8753 17.0008H26.9689C27.8229 17.0008 28.5417 16.7894 29.125 16.3677C29.7082 15.9461 30 15.3286 30 14.5162C30.0002 10.8388 29.3546 9.00027 28.0623 9.00049Z" fill="white"/>
<path d="M25.7272 21.6328C25.6178 21.0234 25.4796 20.4582 25.3129 19.9375C25.1462 19.4164 24.9222 18.9089 24.6414 18.4141C24.36 17.9197 24.0369 17.4975 23.6723 17.1484C23.3075 16.7993 22.8621 16.521 22.3362 16.3124C21.8103 16.1041 21.2294 16 20.5941 16C20.4898 16 20.2659 16.112 19.9221 16.336C19.5783 16.5598 19.1984 16.8102 18.7816 17.0859C18.3648 17.3616 17.808 17.6118 17.1096 17.8358C16.4112 18.0598 15.7082 18.1718 15.0002 18.1718C14.292 18.1718 13.5887 18.0598 12.8908 17.8358C12.1927 17.6118 11.6355 17.3616 11.2189 17.0859C10.802 16.8102 10.422 16.5598 10.0783 16.336C9.73442 16.112 9.51058 16 9.40627 16C8.77094 16 8.19022 16.1041 7.66413 16.3124C7.13803 16.521 6.69276 16.7993 6.32822 17.1484C5.96335 17.4971 5.64074 17.9197 5.35927 18.4141C5.07814 18.9089 4.85419 19.4164 4.68749 19.9375C4.52084 20.4582 4.38298 21.0234 4.27342 21.6328C4.16396 22.2423 4.09112 22.8098 4.05467 23.336C4.01817 23.8621 4 24.4014 4 24.9534C4 26.2032 4.38008 27.1904 5.14047 27.9141C5.90113 28.6378 6.91162 29 8.17178 29H21.8282C23.0885 29 24.0989 28.6378 24.8597 27.9141C25.6201 27.1904 26.0003 26.2032 26.0003 24.9534C26.0003 24.4014 25.982 23.8623 25.946 23.336C25.909 22.8098 25.8362 22.2422 25.7272 21.6328Z" fill="white"/>
<path d="M9.26555 15.0004C8.42176 13.7817 7.99998 12.4484 8.00014 11.0005C8.00014 10.6984 8.02625 10.3547 8.07824 9.96928C7.39064 10.2088 6.69795 10.3287 6.00001 10.3287C5.38542 10.3287 4.76579 10.2167 4.14069 9.99286C3.51587 9.76886 3.00789 9.54749 2.6174 9.32864C2.22676 9.10989 2.00002 9.00049 1.93758 9.00049C0.645841 9.00054 0 10.8391 0 14.5162C0 15.3286 0.291698 15.9461 0.874931 16.3677C1.45833 16.7894 2.17712 17.0005 3.03104 17.0005H5.12492C6.19796 15.7192 7.57797 15.0527 9.26555 15.0004Z" fill="white"/>
</svg>
