<svg width="32" height="32" viewBox="0 0 32 32" fill="none" xmlns="http://www.w3.org/2000/svg">
<path d="M29.9 16.5C29.6999 16.2 29.4 16 29 16C26.7999 16 24.6999 17 23.4 18.8L22.5 20C21.4 21.3 19.7 22 18 22H15C14.4 22 14 21.6 14 21C14 20.4 14.4 20 15 20H16.9C18.5 20 20 18.7 20 17.1V17C20 16.5 19.5 16 19 16V10.9C22.9 10.4 26 7 26 3C26 2.4 25.6 2 25 2C22.6 2 20.5 3.1 19 4.7V2C19 1.4 18.6 1 18 1C17.4 1 17 1.4 17 2V7.7C15.5 6.1 13.4 5 11 5C10.4 5 9.99995 5.4 9.99995 6C9.99995 10.1 13.1 13.4 17 13.9V16H12.9C9.29995 16 6.39995 17.6 4.79995 20.2L2.09995 24.4C1.89995 24.7 1.89995 25.1 2.09995 25.4L5.09995 30.4C5.19995 30.6 5.49995 30.8 5.69995 30.9C5.79995 30.9 5.79995 30.9 5.89995 30.9C6.09995 30.9 6.29995 30.8 6.49995 30.7C10.3 28.2 14.7 26.9 19.2 26.9C22.5 26.9 25.5 25.1 27.1 22.2L29.7999 17.4C30 17.2 30 16.8 29.9 16.5Z" fill="white"/>
</svg>
