<svg width="32" height="32" viewBox="0 0 32 32" fill="none" xmlns="http://www.w3.org/2000/svg">
<path d="M4 7H9H9.1C9.5 8.7 11.1 10 13 10C14.9 10 16.4 8.7 16.9 7H17H28C28.6 7 29 6.6 29 6C29 5.4 28.6 5 28 5H17H16.9C16.5 3.3 14.9 2 13 2C11.1 2 9.6 3.3 9.1 5H9H4C3.4 5 3 5.4 3 6C3 6.6 3.4 7 4 7Z" fill="#ADC178"/>
<path d="M28 15H24H23.9C23.5 13.3 21.9 12 20 12C18.1 12 16.6 13.3 16.1 15H16H4C3.4 15 3 15.4 3 16C3 16.6 3.4 17 4 17H16H16.1C16.5 18.7 18.1 20 20 20C21.9 20 23.4 18.7 23.9 17H24H28C28.6 17 29 16.6 29 16C29 15.4 28.6 15 28 15Z" fill="#ADC178"/>
<path d="M28 25H17H16.9C16.5 23.3 14.9 22 13 22C11.1 22 9.6 23.3 9.1 25H9H4C3.4 25 3 25.4 3 26C3 26.6 3.4 27 4 27H9H9.1C9.5 28.7 11.1 30 13 30C14.9 30 16.4 28.7 16.9 27H17H28C28.6 27 29 26.6 29 26C29 25.4 28.6 25 28 25Z" fill="#ADC178"/>
</svg>
