<svg width="33" height="33" viewBox="0 0 33 33" fill="none" xmlns="http://www.w3.org/2000/svg">
<path d="M16.125 0C11.8502 0.00595237 7.75221 1.70674 4.72948 4.72948C1.70674 7.75221 0.00595237 11.8502 0 16.125C0.885 37.515 31.365 37.5075 32.25 16.125C32.244 11.8502 30.5433 7.75221 27.5205 4.72948C24.4978 1.70674 20.3998 0.00595237 16.125 0ZM23.85 22.26C24.0487 22.4733 24.1569 22.7553 24.1518 23.0468C24.1466 23.3382 24.0286 23.6163 23.8224 23.8224C23.6163 24.0286 23.3382 24.1466 23.0468 24.1518C22.7553 24.1569 22.4733 24.0487 22.26 23.85L16.125 17.715L9.99 23.85C9.77674 24.0487 9.49467 24.1569 9.20322 24.1518C8.91176 24.1466 8.63369 24.0286 8.42757 23.8224C8.22145 23.6163 8.10338 23.3382 8.09824 23.0468C8.09309 22.7553 8.20128 22.4733 8.4 22.26L14.535 16.125L8.4 9.99C8.28947 9.88701 8.20082 9.76281 8.13933 9.62481C8.07784 9.48681 8.04478 9.33784 8.04211 9.18678C8.03945 9.03573 8.06723 8.88569 8.12382 8.7456C8.1804 8.60552 8.26461 8.47827 8.37144 8.37144C8.47827 8.26461 8.60552 8.1804 8.7456 8.12382C8.88569 8.06723 9.03573 8.03945 9.18678 8.04211C9.33784 8.04478 9.48681 8.07784 9.62481 8.13933C9.76281 8.20082 9.88701 8.28947 9.99 8.4L16.125 14.535L22.26 8.4C22.4733 8.20128 22.7553 8.09309 23.0468 8.09824C23.3382 8.10338 23.6163 8.22145 23.8224 8.42757C24.0286 8.63369 24.1466 8.91176 24.1518 9.20322C24.1569 9.49467 24.0487 9.77674 23.85 9.99L17.715 16.125L23.85 22.26Z" fill="#ADC178"/>
</svg>
