<svg width="27" height="43" viewBox="0 0 27 43" fill="none" xmlns="http://www.w3.org/2000/svg">
<path d="M16.9971 31.0544L24.3649 19.5563C24.389 19.5191 24.4091 19.48 24.4249 19.4395C25.6971 17.4259 26.3689 15.1256 26.3689 12.7772C26.3689 5.73184 20.4631 0 13.2039 0C5.94466 0 0.03833 5.73184 0.03833 12.7772C0.03833 15.1261 0.711079 17.4273 1.98434 19.4424C1.99908 19.4777 2.01628 19.512 2.03692 19.5454L9.14034 31.083C3.62616 31.8394 0 34.04 0 36.7094C0 40.017 5.79134 42.6072 13.1842 42.6072C20.5771 42.6072 26.3684 40.0165 26.3684 36.7094C26.3689 34.0276 22.5737 31.7779 16.9971 31.0544ZM3.30772 18.798C2.13324 16.9837 1.51258 14.9019 1.51258 12.7772C1.51258 6.52069 6.75697 1.43081 13.2039 1.43081C19.6503 1.43081 24.8946 6.52069 24.8946 12.7772C24.8946 14.9029 24.274 16.9847 23.1 18.798C23.0754 18.8362 23.0553 18.8758 23.0391 18.9168L15.255 31.0629C15.1381 31.237 15.115 31.2766 14.972 31.5046L13.0063 34.5723L3.37357 18.9268C3.35637 18.8824 3.33426 18.839 3.30772 18.798ZM13.1847 41.1764C6.28374 41.1764 1.47474 38.8218 1.47474 36.7094C1.47474 34.7921 5.09648 32.9855 9.96788 32.426L12.3611 36.3135C12.4933 36.5277 12.7301 36.6598 12.9871 36.6617C12.9891 36.6617 12.9916 36.6617 12.9935 36.6617C13.2481 36.6617 13.4849 36.5339 13.6196 36.324L16.1356 32.3979C21.0847 32.9182 24.8942 34.7707 24.8942 36.7094C24.8946 38.8222 20.0856 41.1764 13.1847 41.1764Z" fill="#ADC178"/>
<path d="M17.9716 12.7772C17.9716 10.2156 15.8241 8.13135 13.1847 8.13135C10.5453 8.13135 8.39783 10.2156 8.39783 12.7772C8.39783 15.3388 10.5453 17.423 13.1847 17.423C15.8241 17.423 17.9716 15.3388 17.9716 12.7772ZM9.87208 12.7772C9.87208 11.0044 11.3581 9.56216 13.1847 9.56216C15.0113 9.56216 16.4973 11.0044 16.4973 12.7772C16.4973 14.55 15.0118 15.9922 13.1847 15.9922C11.3576 15.9922 9.87208 14.55 9.87208 12.7772Z" fill="#ADC178"/>
</svg>
