<?xml version="1.0" encoding="UTF-8" standalone="no"?> <svg width="64" height="64" viewBox="0 0 64 64" fill="none" xmlns="http://www.w3.org/2000/svg">
<path d="M32 5.5C26.9526 5.49717 22.0095 6.93641 17.7525 9.64829C13.4955 12.3602 10.1019 16.2318 7.97119 20.8074C5.84047 25.383 5.06131 30.4721 5.72545 35.4756C6.38959 40.4791 8.46938 45.1887 11.72 49.05C11.72 49.05 11.72 49.05 11.72 49.05C11.98 49.37 12.25 49.67 12.56 50.05L12.81 50.32L13.25 50.77L13.46 50.97L13.7 51.2C14.0015 51.4998 14.3186 51.7835 14.65 52.05C15.01 52.37 15.38 52.68 15.73 52.94C16.08 53.2 16.37 53.43 16.73 53.66C16.7972 53.7212 16.871 53.7749 16.95 53.82C17.18 53.99 17.42 54.14 17.61 54.26L18.22 54.64H18.28C19.03 55.09 19.75 55.48 20.48 55.84H20.59C20.92 56 21.24 56.14 21.59 56.27C22.8283 56.8 24.1054 57.2346 25.41 57.57C25.8 57.67 26.19 57.76 26.59 57.84C26.99 57.92 27.35 58 27.71 58.05L28.17 58.12C28.45 58.17 28.75 58.2 29.03 58.23L29.55 58.29C29.85 58.29 30.17 58.29 30.49 58.35H30.75C31.17 58.35 31.59 58.35 32.01 58.35C32.43 58.35 32.85 58.35 33.27 58.35H33.53C33.85 58.35 34.17 58.35 34.53 58.28L34.98 58.23C35.29 58.23 35.59 58.17 35.78 58.13L36.29 58.05C36.69 58.05 37.07 57.92 37.45 57.84L38.66 57.57C39.9462 57.2319 41.2062 56.8007 42.43 56.28C42.76 56.14 43.08 56 43.43 55.84L42.77 54.49L43.54 55.79C44.27 55.43 44.99 55.04 45.74 54.59L45.83 54.53L46.35 54.2C46.5672 54.0747 46.7775 53.9379 46.98 53.79L47.26 53.6C47.6 53.37 47.94 53.11 48.26 52.88C48.58 52.65 49.01 52.28 49.34 51.99C49.67 51.7 50.01 51.42 50.27 51.16L50.57 50.87L50.37 50.67C50.7048 50.6162 51.0114 50.4505 51.24 50.2L51.5 49.92C51.77 49.63 52.04 49.33 52.3 49.01C55.5394 45.1466 57.6089 40.4389 58.2656 35.4401C58.9222 30.4413 58.1387 25.3589 56.007 20.7899C53.8753 16.2209 50.484 12.3552 46.2315 9.64676C41.9789 6.93835 37.0418 5.49977 32 5.5V5.5ZM50 47.12V47.17C49.76 47.45 49.53 47.72 49.32 47.94L48.99 48.29C48.7965 48.5066 48.6682 48.7736 48.62 49.06L48.42 48.86L48.21 49.06C47.95 49.31 47.69 49.55 47.39 49.8C47.09 50.05 46.76 50.33 46.39 50.6C46.02 50.87 45.83 51.03 45.5 51.27L45.29 51.4C45.13 51.52 44.96 51.63 44.73 51.77L44.26 52.07H44.2C43.53 52.48 42.89 52.84 42.31 53.07C42.241 53.0946 42.1741 53.1247 42.11 53.16C41.84 53.29 41.58 53.41 41.28 53.53C40.1953 53.9919 39.0791 54.3762 37.94 54.68L36.82 55C36.49 55.07 36.17 55.14 35.82 55.19C35.7 55.19 35.58 55.24 35.36 55.26C35.14 55.28 34.92 55.32 34.67 55.35H34.24C33.97 55.35 33.7 55.4 33.42 55.41H33.1C32.3675 55.46 31.6325 55.46 30.9 55.41H30.62C30.34 55.41 30.07 55.41 29.84 55.35H29.35L28.59 55.25L28.17 55.19C27.83 55.19 27.51 55.07 27.17 55C26.83 54.93 26.44 54.84 26.11 54.76C24.9524 54.4591 23.8192 54.0713 22.72 53.6C22.44 53.49 22.18 53.37 21.94 53.26L21.79 53.18C21.1037 52.8576 20.436 52.4971 19.79 52.1H19.73L19.2 51.77C19.03 51.66 18.86 51.55 18.7 51.43L18.58 51.36C18.5343 51.3178 18.4839 51.2809 18.43 51.25C18.15 51.05 17.87 50.85 17.57 50.61C17.27 50.37 16.92 50.1 16.57 49.8C16.22 49.5 16.04 49.34 15.73 49.04L15.56 48.88L15.35 48.67L15 48.32L14.77 48C14.52 47.74 14.29 47.47 14.05 47.19V47.14C11.1739 43.7134 9.33571 39.5371 8.75134 35.1018C8.16696 30.6665 8.86072 26.1566 10.7511 22.102C12.6414 18.0474 15.6498 14.6166 19.4228 12.2128C23.1957 9.80899 27.5764 8.53206 32.05 8.53206C36.5236 8.53206 40.9043 9.80899 44.6772 12.2128C48.4501 14.6166 51.4585 18.0474 53.3489 22.102C55.2392 26.1566 55.933 30.6665 55.3486 35.1018C54.7643 39.5371 52.926 43.7134 50.05 47.14L50 47.12Z" fill="url(#paint0_linear_206_9355)"/>
<path d="M45.5599 18.4399C45.4213 18.2996 45.2563 18.1883 45.0743 18.1122C44.8924 18.0362 44.6971 17.9971 44.4999 17.9971C44.3027 17.9971 44.1075 18.0362 43.9255 18.1122C43.7436 18.1883 43.5785 18.2996 43.4399 18.4399L31.9999 29.8799L20.5599 18.4399C20.2756 18.175 19.8995 18.0307 19.5109 18.0376C19.1223 18.0444 18.7515 18.2019 18.4767 18.4767C18.2019 18.7515 18.0444 19.1223 18.0376 19.5109C18.0307 19.8995 18.175 20.2756 18.4399 20.5599L29.8799 31.9999L18.4399 43.4399C18.2996 43.5785 18.1883 43.7436 18.1122 43.9255C18.0362 44.1075 17.9971 44.3027 17.9971 44.4999C17.9971 44.6971 18.0362 44.8924 18.1122 45.0743C18.1883 45.2563 18.2996 45.4213 18.4399 45.5599C18.7212 45.8408 19.1024 45.9986 19.4999 45.9986C19.8974 45.9986 20.2787 45.8408 20.5599 45.5599L31.9999 34.1199L43.4399 45.5599C43.7212 45.8408 44.1024 45.9986 44.4999 45.9986C44.8974 45.9986 45.2787 45.8408 45.5599 45.5599C45.7002 45.4213 45.8116 45.2563 45.8876 45.0743C45.9636 44.8924 46.0028 44.6971 46.0028 44.4999C46.0028 44.3027 45.9636 44.1075 45.8876 43.9255C45.8116 43.7436 45.7002 43.5785 45.5599 43.4399L34.1199 31.9999L45.5599 20.5599C45.7002 20.4213 45.8116 20.2563 45.8876 20.0743C45.9636 19.8924 46.0028 19.6971 46.0028 19.4999C46.0028 19.3027 45.9636 19.1075 45.8876 18.9255C45.8116 18.7436 45.7002 18.5785 45.5599 18.4399V18.4399Z" fill="url(#paint1_linear_206_9355)"/>
<defs>
<linearGradient id="paint0_linear_206_9355" x1="5.49998" y1="32" x2="58.5" y2="32" gradientUnits="userSpaceOnUse">
<stop stop-color="#FD2411"/>
<stop offset="0.31" stop-color="#DE170C"/>
<stop offset="0.76" stop-color="#B70606"/>
<stop offset="1" stop-color="#A80004"/>
</linearGradient>
<linearGradient id="paint1_linear_206_9355" x1="522.1" y1="17.9971" x2="1306.26" y2="17.9971" gradientUnits="userSpaceOnUse">
<stop stop-color="#FD2411"/>
<stop offset="0.31" stop-color="#DE170C"/>
<stop offset="0.76" stop-color="#B70606"/>
<stop offset="1" stop-color="#A80004"/>
</linearGradient>
</defs>
</svg>
