<svg width="48" height="48" viewBox="0 0 48 48" fill="none" xmlns="http://www.w3.org/2000/svg">
<g clip-path="url(#clip0_594_8)">
<path d="M26.285 2.48612L31.692 13.4421C32.068 14.2041 32.795 14.7321 33.636 14.8541L45.727 16.6111C47.845 16.9191 48.69 19.5211 47.158 21.0141L38.409 29.5421C37.801 30.1351 37.523 30.9901 37.667 31.8271L39.732 43.8691C40.094 45.9781 37.88 47.5861 35.986 46.5911L25.172 40.9061C24.42 40.5111 23.521 40.5111 22.769 40.9061L11.955 46.5911C10.061 47.5871 7.847 45.9781 8.209 43.8691L10.274 31.8271C10.418 30.9901 10.14 30.1351 9.532 29.5421L0.783001 21.0141C-0.748999 19.5201 0.0960009 16.9181 2.214 16.6111L14.305 14.8541C15.146 14.7321 15.873 14.2041 16.249 13.4421L21.656 2.48612C22.602 0.567125 25.338 0.567125 26.285 2.48612Z" fill="#ED8A19"/>
<path d="M17.8562 33V30.3409L24.0692 24.5881C24.5977 24.0767 25.0408 23.6165 25.3988 23.2074C25.7624 22.7983 26.038 22.3977 26.2255 22.0057C26.413 21.608 26.5067 21.179 26.5067 20.7188C26.5067 20.2074 26.3903 19.767 26.1573 19.3977C25.9244 19.0227 25.6062 18.7358 25.2028 18.5369C24.7994 18.3324 24.342 18.2301 23.8306 18.2301C23.2965 18.2301 22.8306 18.3381 22.4329 18.554C22.0352 18.7699 21.7283 19.0795 21.5124 19.483C21.2965 19.8864 21.1886 20.3665 21.1886 20.9233H17.6857C17.6857 19.7812 17.9442 18.7898 18.4613 17.9489C18.9783 17.108 19.7028 16.4574 20.6346 15.9972C21.5664 15.5369 22.6403 15.3068 23.8562 15.3068C25.1062 15.3068 26.1942 15.5284 27.1204 15.9716C28.0522 16.4091 28.7766 17.017 29.2937 17.7955C29.8107 18.5739 30.0692 19.4659 30.0692 20.4716C30.0692 21.1307 29.9386 21.7812 29.6772 22.4233C29.4215 23.0653 28.9641 23.7784 28.305 24.5625C27.646 25.3409 26.717 26.2756 25.5181 27.3665L22.9698 29.8636V29.983H30.2994V33H17.8562Z" fill="white"/>
</g>
<defs>
<clipPath id="clip0_594_8">
<rect width="47.94" height="47.94" fill="white"/>
</clipPath>
</defs>
</svg>
