<svg width="48" height="48" viewBox="0 0 48 48" fill="none" xmlns="http://www.w3.org/2000/svg">
<g clip-path="url(#clip0_594_11)">
<path d="M26.285 2.48612L31.692 13.4421C32.068 14.2041 32.795 14.7321 33.636 14.8541L45.727 16.6111C47.845 16.9191 48.69 19.5211 47.158 21.0141L38.409 29.5421C37.801 30.1351 37.523 30.9901 37.667 31.8271L39.732 43.8691C40.094 45.9781 37.88 47.5861 35.986 46.5911L25.172 40.9061C24.42 40.5111 23.521 40.5111 22.769 40.9061L11.955 46.5911C10.061 47.5871 7.847 45.9781 8.209 43.8691L10.274 31.8271C10.418 30.9901 10.14 30.1351 9.532 29.5421L0.783001 21.0141C-0.748999 19.5201 0.0960009 16.9181 2.214 16.6111L14.305 14.8541C15.146 14.7321 15.873 14.2041 16.249 13.4421L21.656 2.48612C22.602 0.567125 25.338 0.567125 26.285 2.48612Z" fill="#ED8A19"/>
<path d="M23.9563 33.2386C22.6836 33.2386 21.5501 33.0199 20.5558 32.5824C19.5671 32.1392 18.7859 31.5312 18.212 30.7585C17.6438 29.9801 17.3512 29.0824 17.3342 28.0653H21.0501C21.0728 28.4915 21.212 28.8665 21.4677 29.1903C21.729 29.5085 22.0756 29.7557 22.5075 29.9318C22.9393 30.108 23.4251 30.196 23.9648 30.196C24.5273 30.196 25.0245 30.0966 25.4563 29.8977C25.8881 29.6989 26.2262 29.4233 26.4705 29.071C26.7148 28.7187 26.837 28.3125 26.837 27.8523C26.837 27.3864 26.7063 26.9744 26.445 26.6165C26.1893 26.2528 25.82 25.9687 25.337 25.7642C24.8597 25.5597 24.2915 25.4574 23.6325 25.4574H22.0046V22.7472H23.6325C24.1893 22.7472 24.6808 22.6506 25.1069 22.4574C25.5387 22.2642 25.8739 21.9972 26.1126 21.6562C26.3512 21.3097 26.4705 20.9062 26.4705 20.446C26.4705 20.0085 26.3654 19.625 26.1552 19.2955C25.9506 18.9602 25.6609 18.6989 25.2859 18.5114C24.9165 18.3239 24.4847 18.2301 23.9904 18.2301C23.4904 18.2301 23.033 18.321 22.6183 18.5028C22.2035 18.679 21.8711 18.9318 21.6211 19.2614C21.3711 19.5909 21.2376 19.9773 21.2205 20.4205H17.6836C17.7006 19.4148 17.9876 18.5284 18.5444 17.7614C19.1012 16.9943 19.8512 16.3949 20.7944 15.9631C21.7433 15.5256 22.8143 15.3068 24.0075 15.3068C25.212 15.3068 26.266 15.5256 27.1694 15.9631C28.0728 16.4006 28.7745 16.9915 29.2745 17.7358C29.7802 18.4744 30.0302 19.304 30.0245 20.2244C30.0302 21.2017 29.7262 22.017 29.1126 22.6705C28.5046 23.3239 27.712 23.7386 26.7347 23.9148V24.0511C28.0188 24.2159 28.9961 24.6619 29.6665 25.3892C30.3427 26.1108 30.6779 27.0142 30.6722 28.0994C30.6779 29.0938 30.391 29.9773 29.8114 30.75C29.2376 31.5227 28.445 32.1307 27.4336 32.5739C26.4222 33.017 25.2631 33.2386 23.9563 33.2386Z" fill="white"/>
</g>
<defs>
<clipPath id="clip0_594_11">
<rect width="47.94" height="47.94" fill="white"/>
</clipPath>
</defs>
</svg>
