<svg width="48" height="48" viewBox="0 0 48 48" fill="none" xmlns="http://www.w3.org/2000/svg">
<g clip-path="url(#clip0_594_29)">
<path d="M26.285 2.48612L31.692 13.4421C32.068 14.2041 32.795 14.7321 33.636 14.8541L45.727 16.6111C47.845 16.9191 48.69 19.5211 47.158 21.0141L38.409 29.5421C37.801 30.1351 37.523 30.9901 37.667 31.8271L39.732 43.8691C40.094 45.9781 37.88 47.5861 35.986 46.5911L25.172 40.9061C24.42 40.5111 23.521 40.5111 22.769 40.9061L11.955 46.5911C10.061 47.5871 7.847 45.9781 8.209 43.8691L10.274 31.8271C10.418 30.9901 10.14 30.1351 9.532 29.5421L0.783001 21.0141C-0.748999 19.5201 0.0960009 16.9181 2.214 16.6111L14.305 14.8541C15.146 14.7321 15.873 14.2041 16.249 13.4421L21.656 2.48612C22.602 0.567125 25.338 0.567125 26.285 2.48612Z" fill="#ED8A19"/>
<path d="M23.8082 15.3068C24.706 15.3068 25.5696 15.4574 26.3991 15.7585C27.2344 16.0597 27.9787 16.5398 28.6321 17.1989C29.2912 17.858 29.8111 18.733 30.1918 19.8239C30.5781 20.9091 30.7741 22.2415 30.7798 23.821C30.7798 25.304 30.6122 26.6278 30.277 27.7926C29.9474 28.9517 29.473 29.9375 28.8537 30.75C28.2344 31.5625 27.4872 32.1818 26.6122 32.608C25.7372 33.0284 24.7599 33.2386 23.6804 33.2386C22.5156 33.2386 21.4872 33.0142 20.5952 32.5653C19.7031 32.1108 18.9844 31.4943 18.4389 30.7159C17.8991 29.9318 17.5724 29.0511 17.4588 28.0739H21.098C21.2401 28.7102 21.5384 29.2045 21.9929 29.5568C22.4474 29.9034 23.0099 30.0767 23.6804 30.0767C24.8168 30.0767 25.6804 29.5824 26.2713 28.5938C26.8622 27.5994 27.1605 26.2386 27.1662 24.5114H27.0469C26.7855 25.0227 26.4332 25.4631 25.9901 25.8324C25.5469 26.196 25.0384 26.4773 24.4645 26.6761C23.8963 26.875 23.2912 26.9744 22.6491 26.9744C21.6207 26.9744 20.7031 26.733 19.8963 26.25C19.0895 25.767 18.4531 25.1023 17.9872 24.2557C17.5213 23.4091 17.2884 22.4432 17.2884 21.358C17.2827 20.1875 17.5526 19.1449 18.098 18.2301C18.6435 17.3153 19.4048 16.5994 20.3821 16.0824C21.3651 15.5597 22.5071 15.3011 23.8082 15.3068ZM23.8338 18.2045C23.2599 18.2045 22.7486 18.3409 22.2997 18.6136C21.8565 18.8864 21.5043 19.2528 21.2429 19.7131C20.9872 20.1733 20.8622 20.6875 20.8679 21.2557C20.8679 21.8295 20.9929 22.3466 21.2429 22.8068C21.4986 23.2614 21.8452 23.625 22.2827 23.8977C22.7259 24.1648 23.2315 24.2983 23.7997 24.2983C24.2259 24.2983 24.6207 24.2187 24.9844 24.0597C25.348 23.9006 25.6634 23.6818 25.9304 23.4034C26.2031 23.1193 26.4162 22.7926 26.5696 22.4233C26.723 22.054 26.7997 21.6619 26.7997 21.2472C26.794 20.696 26.6634 20.1903 26.4077 19.7301C26.152 19.2699 25.7997 18.9006 25.3509 18.6222C24.902 18.3437 24.3963 18.2045 23.8338 18.2045Z" fill="white"/>
</g>
<defs>
<clipPath id="clip0_594_29">
<rect width="47.94" height="47.94" fill="white"/>
</clipPath>
</defs>
</svg>
