<svg width="48" height="48" viewBox="0 0 48 48" fill="none" xmlns="http://www.w3.org/2000/svg">
<g clip-path="url(#clip0_594_17)">
<path d="M26.285 2.48612L31.692 13.4421C32.068 14.2041 32.795 14.7321 33.636 14.8541L45.727 16.6111C47.845 16.9191 48.69 19.5211 47.158 21.0141L38.409 29.5421C37.801 30.1351 37.523 30.9901 37.667 31.8271L39.732 43.8691C40.094 45.9781 37.88 47.5861 35.986 46.5911L25.172 40.9061C24.42 40.5111 23.521 40.5111 22.769 40.9061L11.955 46.5911C10.061 47.5871 7.847 45.9781 8.209 43.8691L10.274 31.8271C10.418 30.9901 10.14 30.1351 9.532 29.5421L0.783001 21.0141C-0.748999 19.5201 0.0960009 16.9181 2.214 16.6111L14.305 14.8541C15.146 14.7321 15.873 14.2041 16.249 13.4421L21.656 2.48612C22.602 0.567125 25.338 0.567125 26.285 2.48612Z" fill="#ED8A19"/>
<path d="M24.0554 33.2386C22.8509 33.2386 21.777 33.017 20.8338 32.5739C19.8963 32.1307 19.152 31.5199 18.6009 30.7415C18.0497 29.9631 17.7628 29.071 17.7401 28.0653H21.3196C21.3594 28.7415 21.6435 29.2898 22.1719 29.7102C22.7003 30.1307 23.3281 30.3409 24.0554 30.3409C24.6349 30.3409 25.1463 30.2131 25.5895 29.9574C26.0384 29.696 26.3878 29.3352 26.6378 28.875C26.8935 28.4091 27.0213 27.875 27.0213 27.2727C27.0213 26.6591 26.8906 26.1193 26.6293 25.6534C26.3736 25.1875 26.0185 24.8239 25.5639 24.5625C25.1094 24.3011 24.5895 24.1676 24.0043 24.1619C23.4929 24.1619 22.9957 24.267 22.5128 24.4773C22.0355 24.6875 21.6634 24.9744 21.3963 25.3381L18.1151 24.75L18.9418 15.5455H29.6122V18.5625H21.9844L21.5327 22.9347H21.6349C21.9418 22.5028 22.4048 22.1449 23.0241 21.8608C23.6435 21.5767 24.3366 21.4347 25.1037 21.4347C26.1548 21.4347 27.0923 21.6818 27.9162 22.1761C28.7401 22.6705 29.3906 23.3494 29.8679 24.2131C30.3452 25.071 30.581 26.0597 30.5753 27.179C30.581 28.3551 30.3082 29.4006 29.7571 30.3153C29.2116 31.2244 28.4474 31.9403 27.4645 32.4631C26.4872 32.9801 25.3509 33.2386 24.0554 33.2386Z" fill="white"/>
</g>
<defs>
<clipPath id="clip0_594_17">
<rect width="47.94" height="47.94" fill="white"/>
</clipPath>
</defs>
</svg>
