<svg width="48" height="48" viewBox="0 0 48 48" fill="none" xmlns="http://www.w3.org/2000/svg">
<g clip-path="url(#clip0_594_32)">
<path d="M26.285 2.48612L31.692 13.4421C32.068 14.2041 32.795 14.7321 33.636 14.8541L45.727 16.6111C47.845 16.9191 48.69 19.5211 47.158 21.0141L38.409 29.5421C37.801 30.1351 37.523 30.9901 37.667 31.8271L39.732 43.8691C40.094 45.9781 37.88 47.5861 35.986 46.5911L25.172 40.9061C24.42 40.5111 23.521 40.5111 22.769 40.9061L11.955 46.5911C10.061 47.5871 7.847 45.9781 8.209 43.8691L10.274 31.8271C10.418 30.9901 10.14 30.1351 9.532 29.5421L0.783001 21.0141C-0.748999 19.5201 0.0960009 16.9181 2.214 16.6111L14.305 14.8541C15.146 14.7321 15.873 14.2041 16.249 13.4421L21.656 2.48612C22.602 0.567125 25.338 0.567125 26.285 2.48612Z" fill="#ED8A19"/>
<path d="M19.7298 19.4545V34H16.6545V22.3736H16.5692L13.2383 24.4616V21.7344L16.8391 19.4545H19.7298ZM28.8899 34.3196C27.6683 34.3149 26.6172 34.0142 25.7365 33.4176C24.8606 32.821 24.1858 31.9569 23.7124 30.8253C23.2436 29.6937 23.0116 28.3324 23.0163 26.7415C23.0163 25.1553 23.2507 23.8035 23.7195 22.6861C24.1929 21.5687 24.8677 20.7187 25.7436 20.1364C26.6243 19.5492 27.6731 19.2557 28.8899 19.2557C30.1068 19.2557 31.1532 19.5492 32.0291 20.1364C32.9098 20.7235 33.5869 21.5758 34.0604 22.6932C34.5339 23.8059 34.7682 25.1553 34.7635 26.7415C34.7635 28.3371 34.5268 29.7008 34.0533 30.8324C33.5845 31.964 32.9122 32.8281 32.0362 33.4247C31.1603 34.0213 30.1115 34.3196 28.8899 34.3196ZM28.8899 31.7699C29.7232 31.7699 30.3885 31.3509 30.8857 30.5128C31.3828 29.6747 31.629 28.4176 31.6243 26.7415C31.6243 25.6383 31.5107 24.7197 31.2834 23.9858C31.0608 23.2519 30.7436 22.7003 30.3317 22.331C29.9245 21.9616 29.4439 21.777 28.8899 21.777C28.0613 21.777 27.3984 22.1913 26.9013 23.0199C26.4041 23.8485 26.1532 25.089 26.1484 26.7415C26.1484 27.8589 26.2597 28.7917 26.4822 29.5398C26.7095 30.2831 27.0291 30.8419 27.4411 31.2159C27.853 31.5852 28.3359 31.7699 28.8899 31.7699Z" fill="white"/>
</g>
<defs>
<clipPath id="clip0_594_32">
<rect width="47.94" height="47.94" fill="white"/>
</clipPath>
</defs>
</svg>
