<svg width="48" height="48" viewBox="0 0 48 48" fill="none" xmlns="http://www.w3.org/2000/svg">
<g clip-path="url(#clip0_594_26)">
<path d="M26.285 2.48612L31.692 13.4421C32.068 14.2041 32.795 14.7321 33.636 14.8541L45.727 16.6111C47.845 16.9191 48.69 19.5211 47.158 21.0141L38.409 29.5421C37.801 30.1351 37.523 30.9901 37.667 31.8271L39.732 43.8691C40.094 45.9781 37.88 47.5861 35.986 46.5911L25.172 40.9061C24.42 40.5111 23.521 40.5111 22.769 40.9061L11.955 46.5911C10.061 47.5871 7.847 45.9781 8.209 43.8691L10.274 31.8271C10.418 30.9901 10.14 30.1351 9.532 29.5421L0.783001 21.0141C-0.748999 19.5201 0.0960009 16.9181 2.214 16.6111L14.305 14.8541C15.146 14.7321 15.873 14.2041 16.249 13.4421L21.656 2.48612C22.602 0.567125 25.338 0.567125 26.285 2.48612Z" fill="#ED8A19"/>
<path d="M23.9925 33.2386C22.68 33.2386 21.5124 33.0256 20.4897 32.5994C19.4727 32.1676 18.6744 31.5795 18.0948 30.8352C17.5153 30.0909 17.2255 29.2472 17.2255 28.304C17.2255 27.5767 17.3903 26.9091 17.7198 26.3011C18.055 25.6875 18.5096 25.179 19.0835 24.7756C19.6573 24.3665 20.2994 24.1051 21.0096 23.9915V23.8722C20.0778 23.6847 19.3221 23.233 18.7425 22.517C18.163 21.7955 17.8732 20.9574 17.8732 20.0028C17.8732 19.0994 18.1374 18.2955 18.6658 17.5909C19.1942 16.8807 19.9187 16.3239 20.8391 15.9205C21.7653 15.5114 22.8164 15.3068 23.9925 15.3068C25.1687 15.3068 26.217 15.5114 27.1374 15.9205C28.0636 16.3295 28.7908 16.8892 29.3192 17.5994C29.8477 18.304 30.1147 19.1051 30.1204 20.0028C30.1147 20.9631 29.8192 21.8011 29.234 22.517C28.6488 23.233 27.8988 23.6847 26.984 23.8722V23.9915C27.6829 24.1051 28.3164 24.3665 28.8846 24.7756C29.4585 25.179 29.913 25.6875 30.2482 26.3011C30.5891 26.9091 30.7624 27.5767 30.7681 28.304C30.7624 29.2472 30.4698 30.0909 29.8903 30.8352C29.3107 31.5795 28.5096 32.1676 27.4869 32.5994C26.4698 33.0256 25.305 33.2386 23.9925 33.2386ZM23.9925 30.5284C24.5778 30.5284 25.0891 30.4233 25.5266 30.2131C25.9641 29.9972 26.305 29.7017 26.5494 29.3267C26.7994 28.946 26.9244 28.5085 26.9244 28.0142C26.9244 27.5085 26.7965 27.0625 26.5408 26.6761C26.2852 26.2841 25.9386 25.9773 25.5011 25.7557C25.0636 25.5284 24.5607 25.4148 23.9925 25.4148C23.43 25.4148 22.9272 25.5284 22.484 25.7557C22.0408 25.9773 21.6914 26.2841 21.4357 26.6761C21.1857 27.0625 21.0607 27.5085 21.0607 28.0142C21.0607 28.5085 21.1829 28.946 21.4272 29.3267C21.6715 29.7017 22.0153 29.9972 22.4585 30.2131C22.9016 30.4233 23.413 30.5284 23.9925 30.5284ZM23.9925 22.7301C24.4812 22.7301 24.9158 22.6307 25.2965 22.4318C25.6772 22.233 25.9755 21.9574 26.1914 21.6051C26.4073 21.2528 26.5153 20.8466 26.5153 20.3864C26.5153 19.9318 26.4073 19.5341 26.1914 19.1932C25.9755 18.8466 25.68 18.5767 25.305 18.3835C24.93 18.1847 24.4925 18.0852 23.9925 18.0852C23.4982 18.0852 23.0607 18.1847 22.68 18.3835C22.2994 18.5767 22.0011 18.8466 21.7852 19.1932C21.5749 19.5341 21.4698 19.9318 21.4698 20.3864C21.4698 20.8466 21.5778 21.2528 21.7937 21.6051C22.0096 21.9574 22.3079 22.233 22.6886 22.4318C23.0692 22.6307 23.5039 22.7301 23.9925 22.7301Z" fill="white"/>
</g>
<defs>
<clipPath id="clip0_594_26">
<rect width="47.94" height="47.94" fill="white"/>
</clipPath>
</defs>
</svg>
