<svg width="48" height="48" viewBox="0 0 48 48" fill="none" xmlns="http://www.w3.org/2000/svg">
<g clip-path="url(#clip0_594_20)">
<path d="M26.285 2.48612L31.692 13.4421C32.068 14.2041 32.795 14.7321 33.636 14.8541L45.727 16.6111C47.845 16.9191 48.69 19.5211 47.158 21.0141L38.409 29.5421C37.801 30.1351 37.523 30.9901 37.667 31.8271L39.732 43.8691C40.094 45.9781 37.88 47.5861 35.986 46.5911L25.172 40.9061C24.42 40.5111 23.521 40.5111 22.769 40.9061L11.955 46.5911C10.061 47.5871 7.847 45.9781 8.209 43.8691L10.274 31.8271C10.418 30.9901 10.14 30.1351 9.532 29.5421L0.783001 21.0141C-0.748999 19.5201 0.0960009 16.9181 2.214 16.6111L14.305 14.8541C15.146 14.7321 15.873 14.2041 16.249 13.4421L21.656 2.48612C22.602 0.567125 25.338 0.567125 26.285 2.48612Z" fill="#ED8A19"/>
<path d="M24.1918 33.2386C23.294 33.233 22.4276 33.0824 21.5923 32.7869C20.7628 32.4915 20.0185 32.0114 19.3594 31.3466C18.7003 30.6818 18.1776 29.8011 17.7912 28.7045C17.4105 27.608 17.2202 26.2614 17.2202 24.6648C17.2259 23.1989 17.3935 21.8892 17.723 20.7358C18.0582 19.5767 18.5355 18.5937 19.1548 17.7869C19.7798 16.9801 20.527 16.3665 21.3963 15.946C22.2656 15.5199 23.2401 15.3068 24.3196 15.3068C25.4844 15.3068 26.5128 15.5341 27.4048 15.9886C28.2969 16.4375 29.0128 17.0483 29.5526 17.821C30.098 18.5938 30.4276 19.4602 30.5412 20.4205H26.902C26.7599 19.8125 26.4616 19.3352 26.0071 18.9886C25.5526 18.642 24.9901 18.4688 24.3196 18.4688C23.1832 18.4688 22.3196 18.9631 21.7287 19.9517C21.1435 20.9403 20.8452 22.2841 20.8338 23.983H20.9531C21.2145 23.4659 21.5668 23.0256 22.0099 22.6619C22.4588 22.2926 22.9673 22.0114 23.5355 21.8182C24.1094 21.6193 24.7145 21.5199 25.3509 21.5199C26.3849 21.5199 27.3054 21.7642 28.1122 22.2528C28.919 22.7358 29.5554 23.4006 30.0213 24.2472C30.4872 25.0937 30.7202 26.0625 30.7202 27.1534C30.7202 28.3352 30.4446 29.3864 29.8935 30.3068C29.348 31.2273 28.5838 31.9489 27.6009 32.4716C26.6236 32.9886 25.4872 33.2443 24.1918 33.2386ZM24.1747 30.3409C24.7429 30.3409 25.2514 30.2045 25.7003 29.9318C26.1491 29.6591 26.5014 29.2898 26.7571 28.8239C27.0128 28.358 27.1406 27.8352 27.1406 27.2557C27.1406 26.6761 27.0128 26.1562 26.7571 25.696C26.5071 25.2358 26.1605 24.8693 25.7173 24.5966C25.2741 24.3239 24.7685 24.1875 24.2003 24.1875C23.7741 24.1875 23.3793 24.267 23.0156 24.4261C22.6577 24.5852 22.3423 24.8068 22.0696 25.0909C21.8026 25.375 21.5923 25.7045 21.4389 26.0795C21.2855 26.4489 21.2088 26.8437 21.2088 27.2642C21.2088 27.8267 21.3366 28.3409 21.5923 28.8068C21.8537 29.2727 22.206 29.6449 22.6491 29.9233C23.098 30.2017 23.6065 30.3409 24.1747 30.3409Z" fill="white"/>
</g>
<defs>
<clipPath id="clip0_594_20">
<rect width="47.94" height="47.94" fill="white"/>
</clipPath>
</defs>
</svg>
